<?xml version="1.0" encoding="UTF-8"?>
<svg id="Layer_1" data-name="Layer 1" xmlns="http://www.w3.org/2000/svg" viewBox="0 0 292.89 200.16">
  <defs>
    <style>
      .cls-1 {
        stroke-width: 0px;
      }

      .cls-2 {
        opacity: .5;
        stroke-width: 7px;
      }

      .cls-2, .cls-3 {
        fill: none;
        stroke: #000;
        stroke-miterlimit: 10;
      }

      .cls-3 {
        stroke-width: 15px;
      }
    </style>
  </defs>
  <g>
    <path class="cls-1" d="m127.52,144.06h-13.85V60.42l-14.05,8.62v-14.33l14.05-9.37h13.85v98.71Z"/>
    <path class="cls-1" d="m157.09,137.68c-4.78-4.93-7.16-11.81-7.16-20.64v-44.88c0-8.87,2.4-15.76,7.2-20.67,4.8-4.91,11.79-7.37,20.98-7.37s16.24,2.44,21.01,7.33,7.16,11.79,7.16,20.71v44.88c0,8.87-2.4,15.76-7.2,20.67-4.8,4.91-11.79,7.37-20.98,7.37s-16.24-2.47-21.01-7.4Zm31.84-9.61c2.33-2.56,3.5-6.23,3.5-11.03v-44.88c0-4.8-1.15-8.47-3.46-11.03-2.31-2.56-5.93-3.84-10.86-3.84s-8.55,1.28-10.86,3.84c-2.31,2.56-3.46,6.24-3.46,11.03v44.88c0,4.8,1.16,8.48,3.5,11.03,2.33,2.56,5.94,3.84,10.83,3.84s8.5-1.28,10.83-3.84Z"/>
  </g>
  <polygon class="cls-3" points="199.08 192.66 11.54 192.66 93.8 7.5 281.35 7.5 199.08 192.66"/>
  <line class="cls-2" x1="93.75" y1="7.5" x2="199.16" y2="192.76"/>
</svg>
