<?xml version="1.0" encoding="UTF-8"?>
<svg id="Layer_1" data-name="Layer 1" xmlns="http://www.w3.org/2000/svg" viewBox="0 0 273.66 284.74">
  <defs>
    <style>
      .cls-1 {
        stroke-width: 0px;
      }

      .cls-2 {
        fill: none;
        stroke: #000;
        stroke-miterlimit: 10;
        stroke-width: 15px;
      }
    </style>
  </defs>
  <g>
    <path class="cls-1" d="m92.55,200.51h-16.54v-99.88l-16.78,10.3v-17.11l16.78-11.19h16.54v117.88Z"/>
    <path class="cls-1" d="m117.52,186.16l41.11-54.81c2.38-3.13,4.23-6.39,5.55-9.77,1.32-3.38,1.99-6.53,1.99-9.45v-.16c0-4.7-1.38-8.35-4.13-10.95-2.76-2.59-6.68-3.89-11.76-3.89-4.81,0-8.7,1.42-11.67,4.26-2.97,2.84-4.78,6.85-5.43,12.04v.08h-17.11v-.08c.97-6.76,2.96-12.53,5.96-17.31,3-4.78,6.88-8.43,11.64-10.95,4.75-2.51,10.24-3.77,16.46-3.77,7.03,0,13.03,1.2,18,3.61,4.97,2.41,8.76,5.91,11.35,10.5,2.59,4.59,3.89,10.13,3.89,16.62v.08c0,4.16-.87,8.51-2.59,13.05-1.73,4.54-4.13,8.92-7.21,13.13l-34.13,46.37h44.59v15.73h-66.48v-14.35Z"/>
  </g>
  <polygon class="cls-2" points="163.02 8.91 7.67 65.01 13.03 230.1 171.69 276.02 264.39 139.31 163.02 8.91"/>
</svg>
