<?xml version="1.0" encoding="UTF-8"?>
<svg id="Layer_1" data-name="Layer 1" xmlns="http://www.w3.org/2000/svg" viewBox="0 0 289 352">
  <defs>
    <style>
      .cls-1 {
        stroke-width: 0px;
      }
      .cls-2 {
        fill: none;
        stroke: #000;
        stroke-miterlimit: 10;
        stroke-width: 15px;
      }
    </style>
  </defs>
  <path class="cls-1" d="m110.98,261.82c-9.27-5.24-16.32-12.88-21.15-22.91-4.84-10.03-7.25-22.12-7.25-36.27v-.15c0-8.25.97-16.9,2.9-25.96,1.93-9.06,4.73-17.97,8.4-26.72.61-1.53,1.27-3.03,1.99-4.51.71-1.47,1.42-2.93,2.14-4.35l48.26-95.6h33.6l-56.66,110.72.15-5.5c2.54-4.78,6.26-8.5,11.15-11.15,4.89-2.65,10.59-3.97,17.1-3.97,11.5,0,21.38,2.6,29.63,7.79,8.25,5.19,14.51,12.75,18.78,22.68,4.28,9.93,6.41,21.86,6.41,35.81v.15c0,14.25-2.42,26.47-7.25,36.65-4.84,10.18-11.91,17.92-21.23,23.21-9.32,5.29-20.49,7.94-33.52,7.94s-24.18-2.62-33.44-7.87Zm56.27-31.23c5.35-6.11,8.02-14.81,8.02-26.11v-.15c0-12.42-2.8-22.01-8.4-28.79-5.6-6.77-13.59-10.16-23.98-10.16-9.27,0-16.44,3.41-21.53,10.23-5.09,6.82-7.64,16.44-7.64,28.86v.15c0,11.3,2.67,19.98,8.02,26.04,5.34,6.06,12.9,9.09,22.68,9.09s17.49-3.05,22.83-9.16Z"/>
  <rect class="cls-2" x="7.5" y="21.5" width="274" height="274"/>
</svg>
