<?xml version="1.0" encoding="UTF-8"?>
<svg id="Layer_1" data-name="Layer 1" xmlns="http://www.w3.org/2000/svg" viewBox="0 0 288.9 279.33">
  <defs>
    <style>
      .cls-1 {
        stroke-width: 0px;
      }

      .cls-2 {
        opacity: .5;
        stroke-width: 7px;
      }

      .cls-2, .cls-3 {
        fill: none;
        stroke: #000;
        stroke-miterlimit: 10;
      }

      .cls-3 {
        stroke-width: 15px;
      }
    </style>
  </defs>
  <path class="cls-1" d="m124.27,207.95c-8.08-4.04-14.32-9.76-18.72-17.15-4.4-7.39-6.6-15.98-6.6-25.75v-2.91c0-8.8,2.2-17.09,6.6-24.84,4.4-7.76,10.28-13.61,17.63-17.57-6.22-3.39-11.21-8.3-14.97-14.72-3.76-6.42-5.64-13.19-5.64-20.3v-4.24c0-9.21,2.06-17.31,6.18-24.3,4.12-6.99,9.94-12.4,17.45-16.24,7.51-3.84,16.24-5.76,26.18-5.76s18.66,1.92,26.18,5.76c7.51,3.84,13.33,9.25,17.45,16.24,4.12,6.99,6.18,15.09,6.18,24.3v4.24c0,7.27-1.92,14.1-5.76,20.48-3.84,6.38-8.91,11.23-15.21,14.54,7.43,4.04,13.39,9.92,17.88,17.63,4.48,7.72,6.73,15.98,6.73,24.78v2.91c0,9.78-2.2,18.36-6.6,25.75-4.4,7.39-10.65,13.11-18.72,17.15-8.08,4.04-17.45,6.06-28.12,6.06s-20.04-2.02-28.12-6.06Zm43.26-21.09c4.36-2.26,7.74-5.43,10.12-9.51,2.38-4.08,3.58-8.79,3.58-14.12v-1.7c0-5.41-1.19-10.16-3.58-14.24-2.38-4.08-5.76-7.25-10.12-9.51-4.36-2.26-9.41-3.39-15.15-3.39s-10.79,1.13-15.15,3.39c-4.36,2.26-7.74,5.45-10.12,9.57-2.38,4.12-3.58,8.89-3.58,14.3v1.82c0,5.33,1.19,10.02,3.58,14.06,2.38,4.04,5.76,7.17,10.12,9.39,4.36,2.22,9.41,3.33,15.15,3.33s10.79-1.13,15.15-3.39Zm-2.06-79.44c3.8-2.14,6.75-5.19,8.85-9.15,2.1-3.96,3.15-8.52,3.15-13.69v-1.7c0-4.93-1.05-9.29-3.15-13.09-2.1-3.8-5.05-6.73-8.85-8.79-3.8-2.06-8.16-3.09-13.09-3.09s-9.29,1.03-13.09,3.09c-3.8,2.06-6.75,4.99-8.85,8.79-2.1,3.8-3.15,8.2-3.15,13.21v1.82c0,5.09,1.05,9.59,3.15,13.51,2.1,3.92,5.05,6.95,8.85,9.09,3.8,2.14,8.16,3.21,13.09,3.21s9.29-1.07,13.09-3.21Z"/>
  <polygon class="cls-3" points="226.98 234.5 9.55 234.5 61.92 19.44 279.35 19.44 226.98 234.5"/>
  <line class="cls-2" x1="62.35" y1="19.33" x2="227.06" y2="234.62"/>
</svg>
