<?xml version="1.0" standalone="no"?>
<!DOCTYPE svg PUBLIC "-//W3C//DTD SVG 20010904//EN"
 "http://www.w3.org/TR/2001/REC-SVG-20010904/DTD/svg10.dtd">
<svg version="1.0" xmlns="http://www.w3.org/2000/svg"
 width="512.000000pt" height="598.000000pt" viewBox="0 0 512.000000 598.000000"
 preserveAspectRatio="xMidYMid meet">

<g transform="translate(0.000000,598.000000) scale(0.100000,-0.100000)"
fill="#000000" stroke="none">
<path d="M155 5968 c-31 -17 -135 -121 -135 -135 0 -7 -5 -13 -10 -13 -7 0 -9
-579 -7 -1762 3 -1597 5 -1772 20 -1858 78 -444 208 -772 433 -1096 91 -132
160 -214 287 -343 404 -410 905 -658 1502 -743 119 -17 512 -16 635 1 231 32
482 100 680 184 785 334 1362 1051 1515 1886 14 75 30 138 35 139 7 2 10 647
10 1793 0 1688 -1 1790 -17 1811 -38 48 -119 124 -146 136 -37 16 -210 16
-240 0 -43 -25 -109 -81 -126 -108 -9 -15 -31 -44 -48 -66 -37 -44 -183 -240
-198 -265 -5 -10 -23 -32 -40 -51 -16 -18 -42 -51 -58 -73 -15 -22 -47 -67
-72 -100 -25 -33 -56 -76 -69 -95 -13 -19 -35 -46 -48 -60 -12 -14 -36 -43
-51 -65 -47 -68 -77 -109 -97 -132 -11 -12 -30 -39 -44 -60 -13 -21 -35 -49
-48 -63 -13 -14 -28 -32 -34 -41 -5 -9 -25 -36 -44 -59 -18 -23 -39 -50 -45
-60 -5 -10 -39 -55 -75 -101 -36 -46 -76 -100 -89 -119 -13 -19 -27 -37 -31
-40 -4 -3 -16 -19 -26 -36 -11 -17 -31 -45 -46 -62 l-27 -32 -847 2 -847 3
-36 51 c-69 98 -154 209 -163 212 -4 2 -8 9 -8 15 0 6 -17 31 -38 56 -20 25
-57 73 -82 106 -40 53 -82 108 -143 186 -11 13 -31 42 -45 64 -15 22 -31 45
-37 51 -12 13 -40 48 -100 129 -25 33 -52 69 -61 80 -9 11 -28 38 -42 60 -26
38 -36 51 -81 104 -12 13 -21 30 -21 38 0 7 -4 13 -8 13 -5 0 -53 60 -107 133
-55 72 -102 134 -105 137 -3 3 -17 21 -30 40 -13 19 -27 37 -30 40 -4 3 -21
26 -38 52 -28 40 -45 58 -98 95 -38 28 -61 33 -156 33 -57 0 -112 -6 -123 -12z
m1749 -2642 c60 -29 113 -82 148 -148 19 -36 23 -58 23 -138 0 -80 -4 -102
-23 -138 -35 -66 -88 -119 -150 -149 -48 -24 -69 -28 -137 -28 -105 1 -167 27
-234 101 -112 122 -113 302 -4 424 72 80 149 112 255 106 47 -2 84 -11 122
-30z m1600 0 c60 -29 113 -82 148 -148 19 -36 23 -58 23 -138 0 -80 -4 -102
-23 -138 -35 -66 -88 -119 -150 -149 -48 -24 -69 -28 -137 -28 -105 1 -167 27
-234 101 -112 122 -113 302 -4 424 72 80 149 112 255 106 47 -2 84 -11 122
-30z m-1997 -1102 c41 -20 76 -64 93 -119 7 -22 29 -71 48 -110 130 -260 359
-445 651 -523 85 -22 115 -25 261 -25 146 0 176 3 260 25 334 90 580 312 699
632 19 50 36 77 63 99 76 61 186 39 235 -48 28 -49 29 -85 4 -156 -61 -179
-165 -342 -306 -484 -455 -457 -1175 -524 -1719 -161 -219 146 -403 381 -491
626 -33 91 -30 143 10 196 47 61 123 80 192 48z"/>
</g>
</svg>
